<svg xmlns="http://www.w3.org/2000/svg" xmlns:xlink="http://www.w3.org/1999/xlink" width="292" height="49.868" viewBox="0 0 292 49.868">
  <defs>
    <clipPath id="clip-path">
      <rect id="Rectangle_67" data-name="Rectangle 67" width="292" height="49.868" fill="none"/>
    </clipPath>
  </defs>
  <g id="Group_362" data-name="Group 362" transform="translate(0 0)">
    <g id="Group_361" data-name="Group 361" transform="translate(0 0)" clip-path="url(#clip-path)">
      <path id="Path_253" data-name="Path 253" d="M230.743,43.963l-5.5-12.579c-1.244-2.844.073-4.022,1.212-4.022l3.882.017a1.643,1.643,0,0,0,1.6-1.437l.885-8.428a1.277,1.277,0,0,0-1.294-1.438h-5.891a1.637,1.637,0,0,0-1.588,1.43l-2.78,26.446h-4.762L219.3,17.42c.062-.6.124-1.177.181-1.716a4.111,4.111,0,0,1,4.09-3.675h9.583a4.447,4.447,0,0,1,4.5,5.032l-.982,9.338a5.726,5.726,0,0,1-5.561,5.032h-1.065L235.5,43.963Z" transform="translate(-59.428 -3.301)" fill="#010172"/>
      <path id="Path_254" data-name="Path 254" d="M49.068,31.721c0-3.948-13.314-8.026-23.309-9.181L23.55,23.679c6.576,1.067,15.065,5.045,15.01,7.652C38.487,34.85,29.7,36.2,21.77,39.3,3.934,46.272,0,56.055,0,56.055c7.128-9.387,18.666-13.231,32.688-16.585,10.46-2.5,16.38-4.412,16.38-7.75" transform="translate(0 -6.187)" fill="#010172"/>
      <path id="Path_255" data-name="Path 255" d="M35.546.078C12.669-.849.311,6.653.311,16.6c0,9.562,16.268,12.181,16.268,12.181l3.945-2.605c-7.125-.725-13.294-5.7-13.294-10.185,0-7.948,12.14-13.445,31.394-13.445a69.343,69.343,0,0,1,23.314,3.73c-7.413-4.4-16.9-5.81-26.393-6.194" transform="translate(-0.085 0)" fill="#e94e1b"/>
      <path id="Path_256" data-name="Path 256" d="M131.007,44.679a8.137,8.137,0,0,1-6.145-2.655,8.219,8.219,0,0,1-2.014-6.456l2.473-23.516h4.724L127.569,35.6a3.932,3.932,0,0,0,.961,3.089,3.892,3.892,0,0,0,2.939,1.268,5,5,0,0,0,4.853-4.39l2.472-23.516h4.725L141.044,35.6a10.346,10.346,0,0,1-10.037,9.078" transform="translate(-33.706 -3.308)" fill="#010172"/>
      <path id="Path_257" data-name="Path 257" d="M192.945,44.679a8.136,8.136,0,0,1-6.145-2.655,8.219,8.219,0,0,1-2.014-6.456l2.473-23.516h4.725L189.508,35.6a3.934,3.934,0,0,0,.961,3.09,3.893,3.893,0,0,0,2.938,1.267,5.005,5.005,0,0,0,4.854-4.39l2.472-23.516h4.724L202.982,35.6a10.346,10.346,0,0,1-10.038,9.078" transform="translate(-50.707 -3.308)" fill="#010172"/>
      <path id="Path_258" data-name="Path 258" d="M259.245,44.679a8.064,8.064,0,0,1-8.158-9.11l2.472-23.516h4.725L255.808,35.6a3.934,3.934,0,0,0,.961,3.09,3.893,3.893,0,0,0,2.938,1.267,5,5,0,0,0,4.854-4.39l2.472-23.516h4.724L269.283,35.6a10.346,10.346,0,0,1-10.038,9.078" transform="translate(-68.906 -3.308)" fill="#010172"/>
      <path id="Path_259" data-name="Path 259" d="M160.353,43.968,163.281,16.1h-7.158l.426-4.046H175.6l-.425,4.046h-7.159l-2.929,27.871Z" transform="translate(-42.854 -3.308)" fill="#010172"/>
      <path id="Path_260" data-name="Path 260" d="M94.2,43.969l2.84-27.017c.352-3.343,2.088-4.9,5.464-4.9h10.948l-.426,4.046h-9.1c-1.638,0-2.107.424-2.279,2.063l-.961,9.141H109.4l-.425,4.045H100.26L98.933,43.969Z" transform="translate(-25.856 -3.308)" fill="#010172"/>
      <path id="Path_261" data-name="Path 261" d="M296.355,34.553l9.678-22.5H310.9l-3.354,31.915H302.85l2.191-20.844-8.006,19.686a1.893,1.893,0,0,1-1.7,1.158,1.457,1.457,0,0,1-1.46-1.159l-3.946-19.685-2.191,20.844h-4.644l3.354-31.915h4.9Z" transform="translate(-77.704 -3.308)" fill="#010172"/>
      <path id="Path_262" data-name="Path 262" d="M326.756,46.1h3.9c1.806,0,2.412-.786,2.6-2.563a3.741,3.741,0,0,0-1.079-3.582l-1.979-1.95c-1.451-1.427-2.317-2.621-1.989-5.737.306-2.911,1.708-4.339,4.94-4.339h4.164l-.232,2.213H333.5c-1.542,0-2.363.321-2.562,2.213a3.953,3.953,0,0,0,1.022,3.582l1.9,1.863c1.5,1.486,2.483,2.417,2.134,5.737-.337,3.2-1.463,4.775-4.753,4.775h-4.718Z" transform="translate(-89.626 -7.667)" fill="#e94e1b"/>
      <path id="Path_263" data-name="Path 263" d="M354.187,48.314h-2.621L352.546,39H347.3l-.979,9.318H343.7l2.142-20.383h2.621l-.931,8.852h5.241l.93-8.852h2.621Z" transform="translate(-94.342 -7.667)" fill="#e94e1b"/>
      <path id="Path_264" data-name="Path 264" d="M377.368,38.034c-.821,7.8-1.795,10.425-7.415,10.425-5.561,0-6.043-2.621-5.223-10.425s1.853-10.424,7.415-10.424c5.62,0,6.043,2.621,5.223,10.424m-7.182,8.211c3.406,0,3.811-2.184,4.445-8.211.63-6,.688-8.211-2.719-8.211s-3.815,2.213-4.445,8.211c-.633,6.028-.688,8.211,2.719,8.211" transform="translate(-100.027 -7.578)" fill="#e94e1b"/>
      <path id="Path_265" data-name="Path 265" d="M387.857,30.755a2.768,2.768,0,0,1,3.15-2.824h2.679c4.135,0,4.55,2.417,4.146,6.26-.422,4.018-1.337,6.348-5.471,6.348h-2.912l-.817,7.774h-2.621Zm1.825,7.571h2.242c2.563,0,2.888-1.427,3.172-4.135.276-2.621.192-4.048-2.312-4.048h-.961c-1.019,0-1.312.292-1.418,1.31Z" transform="translate(-105.955 -7.666)" fill="#e94e1b"/>
    </g>
  </g>
</svg>
